<?xml version="1.0" encoding="UTF-8" standalone="no"?>
<!-- Created with Inkscape (http://www.inkscape.org/) -->

<svg
   width="210mm"
   height="297mm"
   viewBox="0 0 210 297"
   version="1.1"
   id="svg1"
   xml:space="preserve"
   inkscape:version="1.3 (0e150ed, 2023-07-21)"
   sodipodi:docname="logo.svg"
   inkscape:export-filename="logo.png"
   inkscape:export-xdpi="96"
   inkscape:export-ydpi="96"
   xmlns:inkscape="http://www.inkscape.org/namespaces/inkscape"
   xmlns:sodipodi="http://sodipodi.sourceforge.net/DTD/sodipodi-0.dtd"
   xmlns="http://www.w3.org/2000/svg"
   xmlns:svg="http://www.w3.org/2000/svg"><sodipodi:namedview
     id="namedview1"
     pagecolor="#ffffff"
     bordercolor="#000000"
     borderopacity="0.25"
     inkscape:showpageshadow="2"
     inkscape:pageopacity="0.0"
     inkscape:pagecheckerboard="0"
     inkscape:deskcolor="#d1d1d1"
     inkscape:document-units="mm"
     inkscape:zoom="0.67655412"
     inkscape:cx="399.82019"
     inkscape:cy="536.54244"
     inkscape:window-width="1440"
     inkscape:window-height="763"
     inkscape:window-x="0"
     inkscape:window-y="25"
     inkscape:window-maximized="0"
     inkscape:current-layer="layer1" /><defs
     id="defs1"><rect
       x="167.02285"
       y="650.35447"
       width="101.98741"
       height="85.728544"
       id="rect3" /></defs><g
     inkscape:label="Layer 1"
     inkscape:groupmode="layer"
     id="layer1"><path
       d="m 138.85269,133.55614 c 0,-1.44767 -0.0808,-2.87553 -0.23454,-4.28275 l 5.91385,-2.36736 c -0.34868,-2.35249 -0.87669,-4.6463 -1.57329,-6.86741 l -6.36997,0.40653 c -0.97255,-2.72348 -2.23929,-5.30817 -3.76299,-7.71851 l 4.29016,-4.66945 c -1.3386,-1.94844 -2.8268,-3.78778 -4.4455,-5.50318 l -5.55526,3.09697 c -2.04841,-2.01371 -4.3158,-3.80762 -6.76579,-5.34453 l 1.81623,-6.050205 c -2.04262,-1.175825 -4.18359,-2.202089 -6.41048,-3.0598 l -3.64812,5.17763 c -2.69459,-0.923828 -5.52385,-1.568331 -8.44568,-1.899685 l -1.01717,-6.230345 c -1.1742,-0.08932 -2.35993,-0.134603 -3.559743,-0.134603 -1.19731,0 -2.38472,0.0456 -3.55971,0.134603 l -1.015552,6.230345 c -2.92429,0.331354 -5.75106,0.975857 -8.44648,1.899685 l -3.64812,-5.17763 c -2.22691,0.858524 -4.36869,1.883131 -6.41048,3.0598 l 1.81539,6.050205 c -2.45,1.5361 -4.71737,3.33166 -6.76579,5.34453 l -5.55525,-3.09697 c -1.618728,1.7154 -3.106901,3.55474 -4.44469,5.50318 l 4.28935,4.66945 c -1.523706,2.41034 -2.789606,4.99503 -3.762993,7.71851 l -6.369985,-0.40653 c -0.697401,2.22111 -1.225411,4.51492 -1.574111,6.86741 l 5.91469,2.36736 c -0.154528,1.40722 -0.235509,2.83508 -0.235509,4.28275 0,1.44769 0.08179,2.87555 0.235509,4.28273 l -5.91469,2.36736 c 0.3487,2.3525 0.877535,4.64634 1.574111,6.86745 l 6.369985,-0.40657 c 0.973387,2.72352 2.239287,5.30818 3.762993,7.71852 l -4.28935,4.6711 c 1.337789,1.94678 2.825962,3.78697 4.44469,5.50236 l 5.55525,-3.09697 c 2.04842,2.01287 4.31579,3.80762 6.76579,5.34372 l -1.81539,6.05102 c 2.04179,1.17582 4.18357,2.20209 6.41048,3.0598 l 3.64812,-5.17763 c 2.69542,0.92383 5.52219,1.56751 8.44648,1.89888 l 1.015552,6.23115 c 1.17499,0.0893 2.36159,0.1346 3.55971,0.1346 1.198963,0 2.385543,-0.0453 3.559743,-0.1346 l 1.01717,-6.23115 c 2.92183,-0.33137 5.75109,-0.97505 8.44568,-1.89888 l 3.64812,5.17763 c 2.22689,-0.85771 4.36786,-1.88313 6.41048,-3.05899 l -1.81623,-6.05183 c 2.45083,-1.53529 4.71819,-3.33085 6.76579,-5.34372 l 5.55526,3.09697 c 1.6187,-1.71539 3.1069,-3.55474 4.4455,-5.50236 l -4.291,-4.6711 c 1.52454,-2.41034 2.79128,-4.995 3.76383,-7.71852 l 6.36997,0.40657 c 0.69741,-2.22111 1.22461,-4.51495 1.57329,-6.86745 l -5.91385,-2.36736 c 0.15365,-1.40637 0.23454,-2.83504 0.23454,-4.28273 z M 99.085117,167.8098 c -19.120712,0 -34.622193,-15.33623 -34.622193,-34.25284 0,-18.91659 15.502301,-34.253659 34.622193,-34.253659 19.122333,0 34.623833,15.337069 34.623833,34.253659 0,18.91661 -15.5015,34.25284 -34.623833,34.25284 z"
       id="path25"
       style="stroke-width:0.264583" /><text
       xml:space="preserve"
       style="font-style:normal;font-variant:normal;font-weight:normal;font-stretch:normal;font-size:24.6944px;line-height:0.8;font-family:DS-Digital;-inkscape-font-specification:'DS-Digital, Normal';font-variant-ligatures:normal;font-variant-caps:normal;font-variant-numeric:normal;font-variant-east-asian:normal;text-align:center;letter-spacing:0.264583px;word-spacing:0.264583px;text-anchor:middle;fill:none;stroke:#e2b38d;stroke-width:1;stroke-dasharray:none"
       x="99.083984"
       y="127.49302"
       id="text1"><tspan
         sodipodi:role="line"
         id="tspan1"
         style="font-style:normal;font-variant:normal;font-weight:normal;font-stretch:normal;font-size:24.6944px;font-family:DS-Digital;-inkscape-font-specification:'DS-Digital, Normal';font-variant-ligatures:normal;font-variant-caps:normal;font-variant-numeric:normal;font-variant-east-asian:normal;fill:#000000;fill-opacity:1;stroke:#000000;stroke-width:1;stroke-dasharray:none;stroke-opacity:1"
         x="99.216278"
         y="127.49302">CJS</tspan></text><text
       xml:space="preserve"
       style="font-style:normal;font-variant:normal;font-weight:normal;font-stretch:normal;font-size:21.1667px;line-height:0.8;font-family:DS-Digital;-inkscape-font-specification:'DS-Digital, Normal';font-variant-ligatures:normal;font-variant-caps:normal;font-variant-numeric:normal;font-variant-east-asian:normal;text-align:center;letter-spacing:0px;word-spacing:0px;text-anchor:middle;fill:#000000;fill-opacity:1;stroke:#000000;stroke-width:1;stroke-dasharray:none;stroke-opacity:1"
       x="99.083984"
       y="148.3163"
       id="text2"><tspan
         sodipodi:role="line"
         id="tspan2"
         style="font-style:normal;font-variant:normal;font-weight:normal;font-stretch:normal;font-size:21.1667px;font-family:DS-Digital;-inkscape-font-specification:'DS-Digital, Normal';font-variant-ligatures:normal;font-variant-caps:normal;font-variant-numeric:normal;font-variant-east-asian:normal;letter-spacing:0px;word-spacing:0px;fill:#000000;fill-opacity:1;stroke:#000000;stroke-width:1;stroke-dasharray:none;stroke-opacity:1"
         x="99.083984"
         y="148.3163">builds</tspan></text><text
       xml:space="preserve"
       transform="scale(0.26458333)"
       id="text3"
       style="fill:#000000;stroke-width:3.77952756;font-size:80px;letter-spacing:1px;word-spacing:1px;-inkscape-font-specification:'Raanana, Normal';font-family:Raanana;line-height:0.8;text-align:center;stroke:#000000;stroke-dasharray:none;stroke-opacity:1;fill-opacity:1;white-space:pre;shape-inside:url(#rect3)" /></g></svg>
