<svg xmlns="http://www.w3.org/2000/svg" width="65" height="65" viewBox="65 65 70 70" role="img" aria-labelledby="title desc"><title id="title">Tutor Flow Logo</title><desc id="desc">A modern minimalist logo for a tutoring SaaS platform with a blue color palette and symmetrical calendar design.</desc><path x="65" y="65" width="70" height="70" fill="#1E88E5" rx="8" d="M73 65H127A8 8 0 0 1 135 73V127A8 8 0 0 1 127 135H73A8 8 0 0 1 65 127V73A8 8 0 0 1 73 65z"/><path x="65" y="65" width="70" height="15" fill="#1565C0" rx="5" d="M70 65H130A5 5 0 0 1 135 70V75A5 5 0 0 1 130 80H70A5 5 0 0 1 65 75V70A5 5 0 0 1 70 65z"/><path x1="75" y1="70" x2="75" y2="80" stroke="#FFFFFF" stroke-width="3" d="M75 70L75 80"/><path x1="125" y1="70" x2="125" y2="80" stroke="#FFFFFF" stroke-width="3" d="M125 70L125 80"/><path x1="65" y1="90" x2="135" y2="90" stroke="#FFFFFF" stroke-width="2" d="M65 90L135 90"/><path x1="65" y1="110" x2="135" y2="110" stroke="#FFFFFF" stroke-width="2" d="M65 110L135 110"/><path x1="66" y1="130" x2="134" y2="130" stroke="#FFFFFF" stroke-width="2" d="M66 130L134 130"/><path x1="81.5" y1="80" x2="81.5" y2="135" stroke="#FFFFFF" stroke-width="2" d="M81.5 80L81.5 135"/><path x1="100" y1="80" x2="100" y2="135" stroke="#FFFFFF" stroke-width="2" d="M100 80L100 135"/><path x1="118.5" y1="80" x2="118.5" y2="135" stroke="#FFFFFF" stroke-width="2" d="M118.5 80L118.5 135"/><text x="100" y="120" font-family="&amp;apos;Segoe UI&amp;apos;, sans-serif" font-size="40" fill="#FFC107" font-weight="bold" text-anchor="middle">$</text></svg>